<svg xmlns="http://www.w3.org/2000/svg" width="333" height="500" viewBox="0 0 333 471" shape-rendering="geometricPrecision" text-rendering="geometricPrecision" image-rendering="optimizeQuality" fill-rule="evenodd" clip-rule="evenodd"><defs><style>.str0{stroke:#1f1a17;stroke-width:2.79704}.fil165{fill:#1f1a17}.fil166{fill:#fff}.fil167{fill:#080808}.fil66{fill:#fcd95b}.fil80{fill:#fcdd68}.fil84{fill:#fcde6c}.fil87{fill:#fddf6f}.fil98{fill:#fde278}.fil101{fill:#fde37b}.fil103{fill:#fde47d}.fil108{fill:#fde581}.fil110{fill:#fde683}.fil115{fill:#fde787}.fil117{fill:#fde889}.fil118{fill:#fde88a}.fil120{fill:#fde98c}.fil122{fill:#fde98e}.fil126{fill:#feea91}.fil127{fill:#feeb92}.fil129{fill:#feeb94}.fil130{fill:#feec95}.fil131{fill:#feec96}.fil135{fill:#feed99}.fil136{fill:#feed9a}.fil137{fill:#feee9b}.fil138{fill:#feee9c}.fil142{fill:#feef9f}.fil143{fill:#feefa0}.fil146{fill:#fef0a2}.fil147{fill:#fef0a3}.fil150{fill:#fef1a5}.fil151{fill:#fef1a6}.fil154{fill:#fef2a8}.fil155{fill:#fef2a9}.fil158{fill:#fef3ab}.fil159{fill:#fef3ac}.fil160{fill:#fef3ad}.fil161{fill:#fef4ae}.fil162{fill:#fef4af}.fil163{fill:#fef4b0}</style></defs><g id="Layer_x0020_1"><path d="M146 82c-38 36-77 73-90 123-13 51 8 107 73 111 64 4 99-45 88-97-8-37-52-97-71-137z" fill="#f0b700"/><g id="_156048304"><path id="_156055312" d="M146 83c-38 35-77 72-89 122-13 50 7 107 72 111 64 3 98-45 87-97-7-37-51-97-70-136z" fill="#fabf0b"/><path id="_134216072" d="M146 83c-38 36-77 73-89 122-13 50 7 106 72 110 63 4 98-44 87-96-8-37-51-97-70-136z" fill="#fac00d"/><path id="_134214560" d="M146 84c-38 35-76 72-89 121-12 50 8 106 72 110 63 4 97-44 86-96-7-37-50-96-69-135z" fill="#fac00f"/><path id="_134231072" d="M146 85c-37 35-76 71-88 120-13 50 7 106 71 109 62 4 96-43 86-95-8-37-51-96-69-134z" fill="#fac110"/><path id="_134229344" d="M146 85c-37 35-76 71-88 120-12 50 7 105 71 109 62 4 96-44 85-95-7-36-50-95-68-134z" fill="#fac112"/><path id="_134229032" d="M145 86c-36 34-74 71-86 119-13 50 7 105 70 109 62 3 95-44 85-95-8-36-50-95-69-133z" fill="#fac213"/><path id="_134228936" d="M145 86c-36 35-74 71-86 119-12 50 7 104 70 108 61 4 95-43 84-94-7-36-50-95-68-133z" fill="#fac215"/><path id="_134230544" d="M145 87c-36 34-74 70-86 118-12 49 7 104 70 108 61 3 94-43 83-94-7-36-49-94-67-132z" fill="#fac317"/><path id="_134230808" d="M145 88c-36 34-73 70-85 118s7 103 69 106c60 4 93-43 83-93-7-36-49-94-67-131z" fill="#fac318"/><path id="_134229176" d="M145 88c-36 34-73 70-85 118s7 102 69 106c60 4 93-43 82-93-7-36-48-93-66-131z" fill="#fac41a"/><path id="_134228480" d="M145 89c-36 33-73 69-84 117-12 48 6 102 68 106 60 3 92-43 82-93-7-36-49-93-66-130z" fill="#fac41b"/><path id="_134228504" d="M145 89c-36 34-72 69-84 117s7 102 68 105c59 4 91-42 81-92-7-36-48-93-65-130z" fill="#fac51d"/><path id="_134227352" d="M145 90c-35 33-72 69-84 116-11 48 7 101 68 105 59 3 91-42 81-92-7-35-48-92-65-129z" fill="#fac51e"/><path id="_134228312" d="M144 91c-34 33-71 68-82 115-12 48 6 101 67 104 58 4 90-42 80-91-7-35-47-92-65-128z" fill="#fac620"/><path id="_134229104" d="M144 91c-34 33-70 68-82 115-11 47 7 100 67 104 58 3 90-42 80-91-7-35-48-91-65-128z" fill="#fac621"/><path id="_134227088" d="M144 92c-34 33-70 67-81 114-12 47 6 100 66 104 58 3 89-42 79-91-7-35-47-91-64-127z" fill="#fac722"/><path id="_134228840" d="M144 92c-34 33-69 68-81 114-12 47 6 100 66 103 57 4 88-41 78-90-7-35-46-91-63-127z" fill="#fac724"/><path id="_134228888" d="M144 93c-34 32-69 67-81 113-11 47 7 99 66 103 57 3 88-42 78-90-7-35-46-90-63-126z" fill="#fac725"/><path id="_134229752" d="M144 94c-34 32-69 66-80 112-12 47 6 99 65 102 56 4 87-41 77-89-7-35-46-90-62-125z" fill="#fac827"/><path id="_134231600" d="M144 94c-34 32-68 67-80 112-11 47 6 98 65 102 56 3 87-41 77-89-7-34-46-89-62-125z" fill="#fac828"/><path id="_134220512" d="M144 95c-34 32-68 66-79 111-12 47 6 98 63 102 57 3 87-41 77-89-7-34-45-89-61-124z" fill="#fac929"/><path id="_134219456" d="M143 95c-32 32-67 66-78 111-11 46 6 98 63 101 56 4 86-40 77-88-7-34-46-89-62-124z" fill="#fac92b"/><path id="_134221568" d="M143 96c-32 31-66 65-77 111-12 45 5 96 62 100 56 3 86-41 76-88-7-34-45-88-61-123z" fill="#fbca2c"/><path id="_134217344" d="M143 97c-32 31-66 65-77 110s6 96 62 99c55 4 85-40 75-87-6-34-44-88-60-122z" fill="#fbca2d"/><path id="_134216288" d="M143 97c-32 31-66 65-77 110s6 96 62 99c55 3 84-40 75-87-7-34-44-87-60-122z" fill="#fbca2f"/><path id="_134218400" d="M143 98c-32 31-65 64-76 109s5 95 61 99c55 3 84-40 74-87-6-34-44-87-59-121z" fill="#fbcb30"/><path id="_134214176" d="M143 98c-32 31-65 64-76 109s6 95 61 98c54 3 83-39 74-86-7-33-44-87-59-121z" fill="#fbcb31"/><path id="_134234792" d="M143 99c-32 31-65 64-75 108-11 45 5 94 60 98 54 3 83-40 73-86-6-33-43-86-58-120z" fill="#fbcc32"/><path id="_134215232" d="M142 100c-31 30-63 63-74 107-11 45 5 94 60 97 53 4 82-39 73-85-7-33-43-86-59-119z" fill="#fbcc34"/><path id="_134227376" d="M142 100c-31 30-63 63-74 107-10 44 6 94 60 97 53 3 81-39 72-85-6-33-43-85-58-119z" fill="#fbcc35"/><path id="_134233208" d="M142 101c-30 30-63 63-73 106-11 44 5 93 59 97 52 3 81-39 71-85-6-33-42-85-57-118z" fill="#fbcd36"/><path id="_134232920" d="M142 101c-30 30-62 63-73 106-11 44 5 93 59 96 52 3 80-38 71-84-6-33-42-85-57-118z" fill="#fbcd37"/><path id="_134242640" d="M142 102c-30 30-62 62-72 105-11 44 5 93 58 96 52 3 79-39 70-84-6-33-42-84-56-117z" fill="#fbce38"/><path id="_134245208" d="M142 103c-30 29-62 61-72 104-11 44 5 92 58 95 51 4 79-38 70-83-7-32-42-84-56-116z" fill="#fbce3a"/><path id="_134233832" d="M142 103c-30 30-61 62-72 104-10 44 5 92 58 95 51 3 78-38 69-83-6-32-41-83-55-116z" fill="#fbce3b"/><path id="_134216696" d="M142 104c-30 29-61 61-71 103-11 44 5 91 57 95 50 3 78-38 69-83-7-32-41-83-55-115z" fill="#fbcf3c"/><path id="_134229224" d="M141 104c-29 29-60 61-70 104s5 90 57 93c50 3 77-38 68-82-6-32-41-82-55-115z" fill="#fbcf3d"/><path id="_134215424" d="M141 105c-29 29-59 61-69 103-11 42 4 90 56 93 50 3 76-38 68-82-7-32-41-82-55-114z" fill="#fbd03e"/><path id="_134222504" d="M141 106c-29 28-59 60-69 102s4 89 56 92c49 3 76-37 67-81-6-32-40-82-54-113z" fill="#fbd03f"/><path id="_134214272" d="M141 106c-29 29-59 60-69 102s5 89 56 92c49 3 75-37 66-81-6-32-39-81-53-113z" fill="#fbd040"/><path id="_134220944" d="M141 107c-28 28-58 59-68 101s4 89 55 92c48 3 74-37 66-81-6-31-40-81-53-112z" fill="#fbd142"/><path id="_134222984" d="M141 107c-28 29-58 60-68 101-10 42 4 88 54 91 49 3 75-37 66-80-6-31-39-80-52-112z" fill="#fbd143"/><path id="_134219600" d="M141 108c-28 28-58 59-67 100-10 42 4 88 53 91 48 3 74-37 66-80-6-31-39-80-52-111z" fill="#fbd144"/><path id="_134218736" d="M140 109c-27 27-56 58-66 99-10 42 4 87 53 91 48 2 74-37 65-80-6-31-39-80-52-110z" fill="#fbd245"/><path id="_134215088" d="M140 109c-27 28-56 58-66 99s4 87 53 90c48 3 73-36 65-79-6-31-39-79-52-110z" fill="#fbd246"/><path id="_134232632" d="M140 110c-27 27-56 58-65 98-10 41 4 87 52 90 47 3 72-36 64-79-6-31-38-79-51-109z" fill="#fbd247"/><path id="_134231168" d="M140 110c-27 28-55 58-65 98-10 41 4 86 52 89 47 3 72-36 63-78-5-31-37-78-50-109z" fill="#fbd348"/><path id="_134243384" d="M140 111c-27 27-55 57-65 97-9 41 4 86 52 89 46 3 71-36 63-78-6-30-38-78-50-108z" fill="#fbd349"/><path id="_134233544" d="M140 112c-27 27-55 57-64 97-10 40 4 85 51 88 46 2 70-36 62-78-6-30-37-78-49-107z" fill="#fbd34a"/><path id="_134244176" d="M140 112c-27 27-54 57-64 97-9 40 4 84 51 87 46 3 70-35 62-77-6-30-37-77-49-107z" fill="#fbd44b"/><path id="_134223224" d="M140 113c-26 26-54 56-63 96-10 40 3 84 50 87 45 3 69-35 61-77-6-30-37-77-48-106z" fill="#fbd44c"/><path id="_134215856" d="M139 113c-25 27-53 56-62 96s4 84 50 86c45 3 69-35 60-76-5-30-36-76-48-106z" fill="#fcd44d"/><path id="_134218616" d="M139 114c-25 26-52 56-62 95-9 40 4 83 50 86 44 3 68-35 60-76-6-30-36-76-48-105z" fill="#fcd54e"/><path id="_134217992" d="M139 115c-25 26-52 55-61 94s3 83 49 86c44 2 67-35 59-76-5-29-35-75-47-104z" fill="#fcd54f"/><path id="_134213168" d="M139 115c-25 26-52 55-61 94s4 82 49 85c43 3 67-34 59-75-6-29-36-75-47-104z" fill="#fcd550"/><path id="_134218976" d="M139 116c-25 26-51 55-60 93-9 39 3 82 48 85 43 3 66-34 58-75-5-29-35-75-46-103z" fill="#fcd651"/><path id="_134230712" d="M139 117c-25 25-51 54-60 92-9 39 3 82 48 84 43 3 65-34 58-74-6-29-35-74-46-102z" fill="#fcd652"/><path id="_134221184" d="M139 117c-25 26-51 54-60 92-9 39 4 81 48 84 42 3 65-34 57-74-5-29-35-74-45-102z" fill="#fcd653"/><path id="_134232272" d="M138 118c-24 25-49 53-58 91-9 39 3 81 47 84 42 2 64-34 56-74-5-29-34-73-45-101z" fill="#fcd754"/><path id="_134215304" d="M138 118c-24 25-49 54-58 91-9 39 3 81 46 83 42 3 65-33 57-73-5-29-34-73-45-101z" fill="#fcd755"/><path id="_134221544" d="M138 119c-23 25-49 53-57 91-9 38 3 79 45 82s64-33 56-73c-5-28-33-73-44-100z" fill="#fcd756"/><path id="_134243696" d="M138 120c-23 24-48 52-57 90-9 37 3 79 45 82 42 2 63-34 56-73-6-28-34-72-44-99z" fill="#fcd857"/><path id="_134237744" d="M138 120c-23 25-48 53-57 90-8 37 3 79 45 81 41 3 63-33 55-72-5-28-33-72-43-99z" fill="#fcd858"/><path id="_134244752" d="M138 121c-23 24-48 52-56 89-9 37 2 78 44 81 41 2 62-33 55-72-6-28-33-71-43-98z" fill="#fcd859"/><path id="_134243576" d="M138 121c-23 25-47 52-56 89-8 37 3 78 44 80 40 3 61-32 54-71-5-28-32-71-42-98z" fill="#fcd85a"/><path id="_134220704" class="fil66" d="M137 122c-22 24-46 52-54 88-9 37 2 77 43 80 40 3 61-32 53-71-5-28-32-70-42-97z"/><path id="_134217584" class="fil66" d="M137 123c-22 23-46 51-54 87-9 37 2 77 43 80 39 2 60-33 53-71-5-27-32-70-42-96z"/><path id="_134219048" d="M137 123c-22 24-45 51-54 87-8 37 3 77 43 79 39 3 59-32 52-70-5-27-31-70-41-96z" fill="#fcd95c"/><path id="_134230688" d="M137 124c-22 23-45 50-53 86-9 37 2 76 42 79 39 2 59-32 52-70-5-27-32-69-41-95z" fill="#fcda5d"/><path id="_134222792" d="M137 125c-22 23-45 50-53 85-8 37 2 76 42 79 38 2 58-32 51-70-5-27-31-69-40-94z" fill="#fcda5e"/><path id="_134230328" d="M137 125c-22 23-44 50-53 85-8 36 3 76 42 78 38 3 58-31 50-69-4-27-30-68-39-94z" fill="#fcda5f"/><path id="_134232056" d="M137 126c-21 23-44 49-52 85-8 35 2 74 41 77 37 2 57-31 50-69-5-27-31-68-39-93z" fill="#fcda60"/><path id="_134224064" d="M136 126c-20 23-43 50-51 85s2 74 41 76c37 3 56-31 49-68-5-26-30-67-39-93z" fill="#fcdb61"/><path id="_134230760" d="M136 127c-20 23-42 49-50 84s2 74 40 76c36 2 56-31 49-68-5-26-30-67-39-92z" fill="#fcdb62"/><path id="_134213768" d="M136 128c-20 22-42 48-50 83s2 73 40 76c36 2 55-31 48-68-5-26-29-67-38-91z" fill="#fcdb63"/><path id="_134244656" d="M136 128c-20 22-42 49-50 83-7 35 2 73 40 75 36 3 54-30 48-67-5-26-30-66-38-91z" fill="#fcdc63"/><path id="_134237816" d="M136 129c-20 22-42 48-49 82-8 35 1 73 38 75 36 2 55-30 48-67-5-26-29-66-37-90z" fill="#fcdc64"/><path id="_134222768" d="M136 130c-20 21-41 47-49 81-8 35 2 72 38 75 36 2 54-31 47-66-4-27-28-66-36-90z" fill="#fcdc65"/><path id="_134215112" d="M136 130c-20 22-41 47-48 81-8 35 1 72 37 74 35 3 53-30 47-65-5-26-29-66-36-90z" fill="#fcdc66"/><path id="_134217728" d="M135 131c-19 21-40 47-47 80-8 34 1 72 37 74 35 2 53-30 46-65-4-26-28-65-36-89z" fill="#fcdd67"/><path id="_134219432" class="fil80" d="M135 131c-19 22-39 47-47 80-7 34 2 71 37 73 34 3 52-29 46-64-5-26-28-65-36-89z"/><path id="_134216456" class="fil80" d="M135 132c-19 21-39 46-46 80-8 33 1 70 36 72 34 2 51-29 45-64-4-26-27-65-35-88z"/><path id="_134217968" d="M135 133c-19 21-39 46-46 79s1 69 36 72c34 2 51-30 44-64-4-26-27-64-34-87z" fill="#fcdd69"/><path id="_134232992" d="M135 133c-18 21-38 46-46 79-7 33 2 69 36 71 33 3 50-29 44-63-5-26-27-64-34-87z" fill="#fcde6a"/><path id="_134224160" d="M135 134c-18 21-38 45-45 78s1 69 35 71c33 2 50-29 43-63-4-25-26-63-33-86z" fill="#fcde6b"/><path id="_134231192" class="fil84" d="M134 135c-17 20-37 45-44 77-7 33 1 68 35 71 32 2 49-29 43-63-5-25-27-63-34-85z"/><path id="_134215184" class="fil84" d="M134 135c-17 20-36 45-43 77-8 33 1 68 34 70 32 2 48-28 42-62-4-25-26-62-33-85z"/><path id="_134221232" d="M134 136c-17 20-36 44-43 76-7 33 1 68 34 70 31 2 48-28 42-62-5-25-26-62-33-84z" fill="#fcdf6d"/><path id="_134244272" d="M134 137c-17 19-36 43-43 75-7 33 1 67 34 70 31 2 47-29 41-62-4-25-25-62-32-83z" fill="#fddf6e"/><path id="_134242928" class="fil87" d="M134 137c-17 20-35 44-42 75-7 32 0 67 33 69 31 2 46-28 40-61-4-24-25-61-31-83z"/><path id="_134245328" class="fil87" d="M134 138c-17 19-35 43-42 75-7 31 1 66 32 68s47-28 41-61c-4-24-25-61-31-82z"/><path id="_134243720" d="M133 138c-16 20-34 43-41 75-6 31 1 65 32 67 31 3 46-27 40-60-4-24-24-60-31-82z" fill="#fde070"/><path id="_134220368" d="M133 139c-16 19-33 43-40 74s0 65 31 67c30 2 45-27 40-60-5-24-25-60-31-81z" fill="#fde071"/><path id="_134216600" d="M133 140c-16 19-33 42-40 73s1 65 31 67 45-27 39-60c-4-24-24-59-30-80z" fill="#fde072"/><path id="_134218856" d="M133 140c-16 19-33 42-39 73-7 31 0 64 30 66 29 2 44-27 38-59-4-24-23-59-29-80z" fill="#fde073"/><path id="_134234240" d="M133 141c-16 19-33 42-39 72-7 31 0 64 30 66 29 2 43-27 38-59-4-23-24-58-29-79z" fill="#fde173"/><path id="_134222048" d="M133 142c-15 18-32 41-39 71-6 31 1 64 30 66 28 2 43-27 37-59-4-23-23-58-28-78z" fill="#fde174"/><path id="_134229896" d="M133 142c-15 19-32 41-38 71-7 31 0 63 29 65 28 2 42-26 37-58-4-23-23-58-28-78z" fill="#fde175"/><path id="_134231696" d="M132 143c-14 18-31 41-37 70-6 31 0 63 29 65 28 2 41-26 36-58-4-23-23-57-28-77z" fill="#fde176"/><path id="_134223344" d="M132 144c-14 17-30 40-37 70-6 30 0 62 29 64 27 2 41-27 35-58-3-23-22-57-27-76z" fill="#fde276"/><path id="_134230352" d="M132 144c-14 18-30 40-36 70-7 29 0 61 28 63 27 2 40-26 35-57-4-22-22-56-27-76z" fill="#fde277"/><path id="_134218040" class="fil98" d="M132 145c-14 17-30 40-36 69s0 61 28 63c26 2 40-26 34-57-4-22-21-56-26-75z"/><path id="_134217008" class="fil98" d="M132 145c-14 18-29 40-35 69-7 29-1 61 27 63 26 1 39-26 34-56-4-23-22-56-26-76z"/><path id="_134237936" d="M132 146c-14 17-29 39-35 68s0 60 26 62 39-25 34-55c-4-23-21-56-25-75z" fill="#fde379"/><path id="_134239376" d="M131 147c-13 17-28 39-34 67-6 29 0 60 26 62s39-25 33-55c-3-23-20-55-25-74z" fill="#fde37a"/><path id="_134239280" class="fil101" d="M131 147c-13 17-27 39-33 67-6 29-1 60 25 62 25 1 38-26 33-55-4-23-21-55-25-74z"/><path id="_134239136" class="fil101" d="M131 148c-13 17-27 38-33 66-6 29-1 59 25 61 25 2 37-25 32-54-3-22-20-54-24-73z"/><path id="_134239040" d="M131 149c-13 16-27 37-33 65-5 29 0 59 25 61s37-25 32-54c-4-22-20-54-24-72z" fill="#fde47c"/><path id="_134222888" class="fil103" d="M131 149c-13 17-27 38-32 66-6 28-1 58 24 59 24 2 36-24 31-53-4-22-20-54-23-72z"/><path id="_134230568" class="fil103" d="M131 150c-13 16-26 37-32 65s-1 57 24 59c24 2 35-24 30-53-3-22-19-53-22-71z"/><path id="_134228960" d="M130 151c-11 16-25 36-31 64-5 28 0 57 24 59 23 1 35-24 30-53-4-22-19-53-23-70z" fill="#fde47e"/><path id="_134239472" d="M130 151c-11 16-25 37-30 64-6 27-1 57 23 58 23 2 34-23 29-52-3-21-19-52-22-70z" fill="#fde47f"/><path id="_134239544" d="M130 152c-11 16-24 36-30 63-5 27-1 56 23 58 22 2 33-24 29-52-4-21-19-52-22-69z" fill="#fde57f"/><path id="_134239664" d="M130 153c-11 15-24 35-29 62-6 27-2 56 22 58 22 1 33-24 28-52-3-21-18-51-21-68z" fill="#fde580"/><path id="_134239784" class="fil108" d="M130 153c-11 16-24 36-29 62-6 27-1 56 22 57 21 2 32-23 27-51-3-21-17-51-20-68z"/><path id="_134239904" class="fil108" d="M130 154c-11 15-23 35-29 61-5 27-1 55 21 57s32-23 28-51c-4-21-18-50-20-67z"/><path id="_134240024" d="M129 155c-10 15-22 34-27 61-6 26-2 54 20 56 22 1 32-23 27-51-3-20-17-50-20-66z" fill="#fde682"/><path id="_134240144" class="fil110" d="M129 155c-10 15-22 35-27 61s-1 54 20 55c21 2 31-22 26-50-3-20-16-49-19-66z"/><path id="_134240264" class="fil110" d="M129 156c-10 14-22 34-27 60s-1 53 20 55 30-23 26-50c-3-20-17-49-19-65z"/><path id="_134240384" d="M129 157c-10 14-21 33-26 59s-2 53 19 55c20 1 30-23 25-49-3-21-16-50-18-65z" fill="#fde684"/><path id="_134240504" d="M129 157c-10 14-21 34-26 59-5 26-2 53 19 54 20 2 29-22 25-48-3-21-16-49-18-65z" fill="#fde685"/><path id="_134240624" d="M128 158c-9 14-20 33-25 58-5 26-1 53 19 54 19 2 28-22 24-48-3-20-16-49-18-64z" fill="#fde785"/><path id="_134240744" d="M128 159c-9 13-19 32-24 57-5 26-2 52 18 54 19 1 28-22 23-48-3-20-15-48-17-63z" fill="#fde786"/><path id="_134240864" class="fil115" d="M128 159c-9 14-19 33-24 58s-2 51 18 52c18 2 27-21 23-47-3-20-15-48-17-63z"/><path id="_134240984" class="fil115" d="M128 160c-9 13-19 32-24 57-4 25-1 51 18 52 18 1 26-21 22-47-3-20-15-47-16-62z"/><path id="_134241104" d="M128 161c-9 13-19 31-23 56-5 24-2 50 16 52 18 1 27-22 23-47-3-20-15-47-16-61z" fill="#fde788"/><path id="_134241224" class="fil117" d="M128 161c-8 13-18 32-23 56s-2 50 16 51c18 2 26-21 22-46-3-19-14-46-15-61z"/><path id="_134241344" class="fil117" d="M127 162c-7 13-17 31-21 55-5 24-3 50 15 51 17 1 25-21 21-46-2-19-14-46-15-60z"/><path id="_134241464" class="fil118" d="M127 163c-7 12-17 31-21 54-5 24-2 49 15 51 17 1 25-21 21-46-3-19-14-45-15-59z"/><path id="_134241584" class="fil118" d="M127 163c-7 13-16 31-21 54-4 24-2 49 15 50 17 2 24-20 20-45-3-19-13-45-14-59z"/><path id="_134241704" d="M127 164c-7 12-16 30-20 54-5 23-3 48 14 49 16 1 23-20 19-45-2-18-13-44-13-58z" fill="#fde88b"/><path id="_134241824" class="fil120" d="M127 165c-7 12-16 30-20 53s-3 47 14 49c16 1 23-20 19-45-3-18-13-44-13-57z"/><path id="_134241944" class="fil120" d="M126 165c-6 12-15 30-19 53s-2 47 14 48c15 2 22-20 18-44-2-18-12-43-13-57z"/><path id="_134242064" d="M126 166c-6 12-14 29-18 52-5 23-3 47 13 48 15 1 21-20 18-43-3-19-13-44-13-57z" fill="#fde98d"/><path id="_134242184" class="fil122" d="M126 167c-6 11-14 29-18 51-4 23-3 47 13 48 14 1 21-20 17-43-3-19-12-43-12-56z"/><path id="_134242304" class="fil122" d="M126 167c-6 12-14 29-18 51-4 23-2 46 12 48 15 1 21-20 17-43-2-18-11-43-11-56z"/><path id="_134242424" d="M126 168c-6 11-13 28-17 50-4 23-3 46 11 47s20-19 17-42c-3-18-12-42-11-55z" fill="#fdea8f"/><path id="_134234264" d="M126 169c-6 11-13 28-17 50s-3 45 11 46 19-19 16-42c-2-18-11-42-10-54z" fill="#feea8f"/><path id="_134223944" d="M125 169c-5 11-12 28-16 50s-3 44 11 46c13 1 19-19 15-42-2-18-10-41-10-54z" fill="#feea90"/><path id="_134225528" class="fil126" d="M125 170c-5 11-12 27-15 49-4 22-3 44 10 45s18-18 15-41c-3-18-11-41-10-53z"/><path id="_134233712" class="fil126" d="M125 171c-5 10-11 27-15 48-4 22-3 44 10 45 12 1 17-19 14-41-2-17-10-40-9-52z"/><path id="_134228456" class="fil127" d="M125 171c-5 11-11 27-15 48-3 22-3 43 10 45 12 1 17-19 14-41-3-17-10-40-9-52z"/><path id="_134224472" class="fil127" d="M125 172c-5 10-11 26-14 47-4 22-4 43 9 44 11 1 16-18 13-40-2-17-10-39-8-51z"/><path id="_134227664" d="M124 173c-4 10-9 26-13 47s-3 42 9 43c11 1 15-18 12-40-2-17-9-39-8-50z" fill="#feeb93"/><path id="_134226344" class="fil129" d="M124 174c-4 9-9 25-13 46-3 20-3 42 8 43s16-18 13-39c-2-17-9-40-8-50z"/><path id="_134225024" class="fil129" d="M124 174c-4 10-9 26-12 46-4 20-4 41 7 42s15-17 12-38c-2-17-9-39-7-50z"/><path id="_134223704" class="fil130" d="M124 175c-4 9-9 25-12 45s-4 41 7 42c10 1 14-17 11-38-2-17-8-39-6-49z"/><path id="_134222384" class="fil130" d="M124 176c-4 9-8 24-12 44-3 20-3 41 7 42s14-17 11-38c-2-17-8-38-6-48z"/><path id="_134221064" class="fil131" d="M123 176c-3 10-7 25-10 44-4 20-4 41 6 42 10 0 13-18 10-38-2-16-8-38-6-48z"/><path id="_134219744" class="fil131" d="M123 177c-3 9-7 24-10 44-3 19-4 39 6 40 9 1 12-17 9-37-2-16-7-37-5-47z"/><path id="_134218424" d="M123 178c-3 9-7 23-10 43-3 19-4 39 6 40 9 1 11-17 9-37-2-16-7-36-5-46z" fill="#feec97"/><path id="_134217104" d="M123 178l-9 43c-4 19-4 39 5 40 8 1 11-17 8-37-2-16-7-36-4-46z" fill="#feec98"/><path id="_134215784" d="M122 179l-8 42c-3 19-4 38 4 39 9 1 11-16 8-36-1-15-6-35-4-45z" fill="#feed98"/><path id="_134214464" class="fil135" d="M122 180l-8 41c-3 19-4 38 4 39s10-16 8-36c-2-15-6-35-4-44z"/><path id="_134213144" class="fil135" d="M122 181c-1 8-5 22-7 40-3 19-5 38 3 39s10-16 7-35c-2-16-6-35-3-44z"/><path id="_134234912" class="fil136" d="M122 181l-7 41c-3 18-4 37 3 37 7 1 9-15 7-34-2-16-6-35-3-44z"/><path id="_134235032" class="fil136" d="M122 182l-7 40c-3 18-4 36 3 37s8-15 6-34c-2-15-5-34-2-43z"/><path id="_134235152" class="fil137" d="M121 183c0 7-3 21-6 39-2 18-4 36 3 37 6 1 8-16 5-34-1-15-5-34-2-42z"/><path id="_134235272" class="fil137" d="M121 183c0 8-3 22-5 39-3 18-5 36 2 37 6 0 7-16 5-34-2-15-5-33-2-42z"/><path id="_134235392" class="fil138" d="M121 184l-5 38c-2 18-4 36 2 36 5 1 6-15 4-33-2-15-5-33-1-41z"/><path id="_134235512" class="fil138" d="M121 185l-5 38c-2 17-4 34 1 35 6 1 6-15 4-33-1-14-4-32 0-40z"/><path id="_134235632" d="M121 186l-4 37c-3 17-5 34 0 35s6-15 4-33c-2-14-4-32 0-39z" fill="#feee9d"/><path id="_134235752" d="M120 186c1 7-1 20-3 37s-5 34 0 35c5 0 5-15 3-32-1-15-4-32 0-40z" fill="#feee9e"/><path id="_134235872" d="M120 187c1 7 0 20-3 36-2 17-4 34 0 34 4 1 4-14 2-31-1-15-3-32 1-39z" fill="#feef9e"/><path id="_134235992" class="fil142" d="M120 188c1 6 0 19-2 35-3 17-5 33-1 34s4-14 2-31c-2-14-3-31 1-38z"/><path id="_134236112" class="fil142" d="M120 188c1 7 0 19-2 36-2 16-5 32-1 33 3 0 3-14 1-31-1-14-3-31 2-38z"/><path id="_134236232" class="fil143" d="M119 189c2 6 1 19-1 35s-5 32-1 32c3 1 2-13 0-30-1-14-2-30 2-37z"/><path id="_134236352" class="fil143" d="M119 190c2 6 2 18 0 34-3 16-6 32-3 32 3 1 2-13 1-30-2-13-3-30 2-36z"/><path id="_134236472" d="M119 191c2 5 2 18 0 33-2 16-5 31-3 32 3 1 2-13 0-30-1-13-2-29 3-35z" fill="#feefa1"/><path id="_134236592" d="M119 191c2 6 2 18 0 33-2 16-5 31-3 32 2 0 1-14-1-29-1-14-1-30 4-36z" fill="#fef0a1"/><path id="_134236712" class="fil146" d="M118 192c3 5 3 17 1 33-1 15-5 30-3 30l-1-28c-2-14-2-29 3-35z"/><path id="_134236832" class="fil146" d="M118 193c3 5 4 17 2 32s-6 30-4 30l-2-28c-1-13-1-28 4-34z"/><path id="_134236952" class="fil147" d="M118 194c3 5 4 16 2 31s-5 29-4 30l-3-28c-1-13 0-28 5-33z"/><path id="_134237072" class="fil147" d="M118 194c3 5 4 17 2 31-1 15-5 29-5 30l-2-28c-1-13-1-27 5-33z"/><path id="_134237192" d="M117 195c4 5 5 16 4 31l-6 28-3-27c-1-13 0-27 5-32z" fill="#fef0a4"/><path id="_134237312" d="M117 196c4 4 5 15 4 30l-6 28-4-27c-1-12 0-26 6-31z" fill="#fef1a4"/><path id="_134237432" class="fil150" d="M117 197c4 4 6 15 4 29-1 14-6 27-6 28-1 0-3-12-4-26-1-13 0-27 6-31z"/><path id="_134237552" class="fil150" d="M117 197c4 4 6 15 4 29-1 14-5 27-6 28-1 0-4-12-5-26-1-13 1-26 7-31z"/><path id="_134233928" class="fil151" d="M116 198c5 4 7 15 6 28-2 14-6 27-7 27-2 1-5-11-6-25-1-12 1-26 7-30z"/><path id="_134234096" class="fil151" d="M116 199c5 4 7 14 6 28-1 13-6 26-8 26-1 1-4-11-6-25 0-12 2-25 8-29z"/><path id="_134234216" d="M116 200c5 3 8 14 6 27-1 13-6 26-8 26s-5-11-6-25c-1-12 1-24 8-28z" fill="#fef1a7"/><path id="_134234408" d="M116 200c5 4 8 14 7 27-2 13-7 25-9 26-2 0-6-11-7-25-1-11 2-24 9-28z" fill="#fef2a7"/><path id="_134234336" class="fil154" d="M115 201c6 3 9 14 8 26-1 13-6 25-9 26-3 0-7-11-8-24 0-12 3-24 9-28z"/><path id="_134234648" class="fil154" d="M115 202c6 3 9 13 8 26-1 12-6 24-9 24-3 1-7-10-8-23-1-12 2-24 9-27z"/><path id="_134234576" class="fil155" d="M115 203c6 3 9 12 8 25-1 12-6 24-9 24-4 0-8-10-9-23-1-11 3-23 10-26z"/><path id="_134224400" class="fil155" d="M115 204c6 2 10 12 9 24s-7 24-11 24c-3 0-8-10-9-23 0-11 3-23 11-25z"/><path id="_134224256" d="M114 204c6 3 11 12 10 24s-7 23-11 24c-4 0-9-10-9-23-1-11 3-22 10-25z" fill="#fef2aa"/><path id="_134224688" d="M114 205c6 2 11 12 10 24s-6 22-11 22c-5 1-9-9-10-21-1-11 4-22 11-25z" fill="#fef3aa"/><path id="_134224856" class="fil158" d="M114 206c6 2 11 11 10 23 0 12-6 22-11 22s-10-9-11-21c0-11 4-22 12-24z"/><path id="_134224976" class="fil158" d="M114 207c6 2 11 11 11 22-1 12-7 22-12 22-6 0-11-9-12-21 0-11 5-21 13-23z"/><path id="_134225168" class="fil159" d="M113 207c7 2 13 11 12 22-1 12-7 22-13 22-5 0-11-9-11-21-1-10 4-21 12-23z"/><path id="_134225096" class="fil159" d="M113 208c7 2 13 11 12 22 0 11-7 20-13 21-6 0-12-10-12-21 0-10 5-20 13-22z"/><path id="_134225408" class="fil160" d="M113 209c7 2 13 10 12 21 0 11-7 20-13 20-6 1-12-9-13-19 0-11 5-20 14-22z"/><path id="_134225336" class="fil160" d="M112 210c8 1 14 10 14 20-1 11-7 20-14 20s-13-9-13-19c-1-10 5-20 13-21z"/><path id="_134225720" class="fil161" d="M112 211c8 1 14 9 14 20 0 10-7 19-14 19-8 0-14-9-14-19s6-19 14-20z"/><path id="_134225576" class="fil161" d="M112 212c8 0 14 9 14 19s-7 19-15 19c-7 0-14-9-14-19s6-18 15-19z"/><path id="_134226008" class="fil162" d="M112 212c8 1 15 9 14 19 0 10-7 19-15 19s-14-9-15-19c0-9 7-18 16-19z"/><path id="_134226176" class="fil162" d="M111 213c9 1 16 9 16 18-1 10-8 18-16 19-8 0-15-8-15-18-1-10 6-18 15-19z"/><path id="_134226296" class="fil163" d="M111 214c9 0 16 8 16 18 0 9-8 17-16 17-9 0-16-7-16-17s7-18 16-18z"/><path id="_134226488" class="fil163" d="M111 215c9 0 16 8 16 17s-7 17-16 17-17-7-17-17c0-9 7-17 17-17z"/></g><ellipse cx="110.3" cy="232.4" rx="17" ry="16.7" fill="#fff5b1"/><g id="_134227808"><path id="_133552008" class="fil165" d="M105 219c-5 0-17 2-16-9 20-1 31-7 51-20-2 13-27 28-35 29z"/><path id="_134228024" class="fil165" d="M93 115c3 0 8-1 8 5-10 0-16 3-26 10 1-7 14-15 18-15z"/><path id="_156056728" class="fil165" d="M127 114c-2 0-8-1-8 5 10 0 16 3 27 10-2-7-15-15-19-15z"/><ellipse id="_133551624" class="fil166 str0" cx="93.7" cy="161.8" rx="17.1" ry="26.9"/><path id="_133548840" class="fil167" d="M92 174c9-1 12-8 12-17 0-5-1-7-4-10-2 2-5 12-6 15l1-16h-2c-13 0-13 30-1 28z"/><ellipse id="_133550712" class="fil166 str0" cx="125.1" cy="159.5" rx="17.1" ry="26.9"/><path id="_134227760" class="fil167" d="M124 172c9-1 11-8 11-17 0-5 0-7-4-10l-6 15 1-16h-2c-13 0-12 30 0 28z"/></g><path d="M198 276c4-32 3-53-3-86 18 12 20 70 3 86z" fill="#fff500"/></g></svg>